SplineFontDB: 3.0
FontName: ThreeFourTwoTwo
FullName: ThreeFourTwoTwo
FamilyName: ThreeFourTwoTwo
Weight: Regular
Copyright: Copyright (c) 2016, Stewart C. Russell (Toronto, Canada) <http://scruss.com>\nTwitter: @scruss\n\nBased on the character matrix of the Litronix DL-3422 *22 segment* LED alphanumeric display.\n\nThis Font Software is licensed under the SIL Open Font License, Version 1.1.\nThis license is copied below, and is also available with a FAQ at:\nhttp://scripts.sil.org/OFL
UComments: "2016-9-4: Created with FontForge (http://fontforge.org)"
FontLog: "2016-09-04: scruss+AAoA * initial glyph import+AAoACgAA-2016-09-05: scruss+AAoA * finished glyph cleanup+AAoACgAA-2016-09-08: scruss+AAoA * fixed spare open contour in +IBwA-i+IB0ACgAA * added guessed PS Private Dictionary to stop validation complaints"
Version: 001.002
ItalicAngle: 0
UnderlinePosition: -204
UnderlineWidth: 102
Ascent: 1638
Descent: 410
InvalidEm: 0
LayerCount: 2
Layer: 0 0 "Back" 1
Layer: 1 0 "Fore" 0
XUID: [1021 132 1422713231 3553058]
FSType: 0
OS2Version: 0
OS2_WeightWidthSlopeOnly: 0
OS2_UseTypoMetrics: 1
CreationTime: 1472993961
ModificationTime: 1473342252
PfmFamily: 49
TTFWeight: 400
TTFWidth: 5
LineGap: 184
VLineGap: 0
OS2TypoAscent: 0
OS2TypoAOffset: 1
OS2TypoDescent: 0
OS2TypoDOffset: 1
OS2TypoLinegap: 184
OS2WinAscent: 0
OS2WinAOffset: 1
OS2WinDescent: 0
OS2WinDOffset: 1
HheadAscent: 0
HheadAOffset: 1
HheadDescent: 0
HheadDOffset: 1
OS2Vendor: 'PfEd'
MarkAttachClasses: 1
DEI: 91125
LangName: 1033
DesignSize: 162
Encoding: ISO8859-1
Compacted: 1
UnicodeInterp: none
NameList: AGL For New Fonts
DisplaySize: -72
AntiAlias: 1
FitToEm: 1
WinInfo: 32 8 7
BeginPrivate: 8
BlueValues 24 [0 26 570 643 1202 1228]
BlueScale 8 0.039625
StdHW 4 [60]
StdVW 4 [81]
StemSnapH 19 [60 81 494 495 573]
StemSnapV 44 [81 157 387 461 478 538 550 555 577 594 612]
ForceBold 5 false
OtherBlues 11 [-410 -410]
EndPrivate

StartChar: uni007F
Encoding: 127 127 0
Width: 1228
VWidth: 0
Flags: W
HStem: -410 60<118 472 601 955> -108 81<439.014 519.987> 0 60<175 511 639 975> 583 60<205 559 688 1042> 1068 81<535.013 615.986> 1168 60<270 606 734 1070>
VStem: 439 81<-107.987 -27.0139> 535 81<1068.01 1148.99>
LayerCount: 2
Fore
SplineSet
207 75 m 1
 186 75 l 1
 193 151 l 1
 545 569 l 1
 573 569 l 1
 568 503 l 1
 207 75 l 1
947 75 m 1
 658 507 l 1
 664 569 l 1
 688 569 l 1
 971 147 l 1
 965 75 l 1
 947 75 l 1
699 659 m 1
 671 659 l 1
 677 726 l 1
 1038 1154 l 1
 1059 1154 l 1
 1052 1077 l 1
 699 659 l 1
556 659 m 1
 274 1081 l 1
 280 1154 l 1
 298 1154 l 1
 587 722 l 1
 581 659 l 1
 556 659 l 1
124 0 m 1
 175 60 l 1
 511 60 l 1
 551 0 l 1
 124 0 l 1
588 0 m 1
 639 60 l 1
 975 60 l 1
 1015 0 l 1
 588 0 l 1
1031 670 m 1
 1071 1125 l 1
 1138 1204 l 1
 1088 631 l 1
 1031 670 l 1
982 104 m 1
 1022 560 l 1
 1085 597 l 1
 1035 24 l 1
 982 104 l 1
223 668 m 1
 160 631 l 1
 210 1204 l 1
 263 1125 l 1
 223 668 l 1
174 104 m 1
 107 24 l 1
 157 597 l 1
 213 559 l 1
 174 104 l 1
691 1228 m 1
 1121 1228 l 1
 1070 1168 l 1
 734 1168 l 1
 691 1228 l 1
227 1228 m 1
 657 1228 l 1
 606 1168 l 1
 270 1168 l 1
 227 1228 l 1
627 662 m 1
 600 702 l 1
 640 1163 l 1
 674 1202 l 1
 701 1165 l 1
 660 699 l 1
 627 662 l 1
571 26 m 1
 544 66 l 1
 585 527 l 1
 618 567 l 1
 645 529 l 1
 604 63 l 1
 571 26 l 1
660 610 m 1
 688 643 l 1
 1049 643 l 1
 1068 614 l 1
 1042 583 l 1
 678 583 l 1
 660 610 l 1
177 610 m 1
 205 643 l 1
 566 643 l 1
 585 614 l 1
 559 583 l 1
 195 583 l 1
 177 610 l 1
535 1109 m 0
 535 1131 553 1149 575 1149 c 0
 597 1149 616 1131 616 1109 c 0
 616 1087 597 1068 575 1068 c 0
 553 1068 535 1087 535 1109 c 0
439 -68 m 0
 439 -46 458 -27 480 -27 c 0
 502 -27 520 -46 520 -68 c 0
 520 -90 502 -108 480 -108 c 0
 458 -108 439 -90 439 -68 c 0
536 -378 m 1
 509 -339 l 1
 533 -65 l 1
 566 -26 l 1
 593 -63 l 1
 569 -341 l 1
 536 -378 l 1
229 570 m 1
 254 570 l 1
 375 389 l 1
 334 342 l 1
 224 507 l 1
 229 570 l 1
426 313 m 1
 536 147 l 1
 530 75 l 1
 512 75 l 1
 386 265 l 1
 426 313 l 1
573 -383 m 1
 601 -350 l 1
 962 -350 l 1
 981 -379 l 1
 955 -410 l 1
 591 -410 l 1
 573 -383 l 1
90 -383 m 1
 118 -350 l 1
 479 -350 l 1
 498 -379 l 1
 472 -410 l 1
 108 -410 l 1
 90 -383 l 1
EndSplineSet
Validated: 1
EndChar

StartChar: x
Encoding: 120 120 1
Width: 1228
VWidth: 0
Flags: W
HStem: 75 494
VStem: 186 387
LayerCount: 2
Fore
SplineSet
207 75 m 1
 186 75 l 1
 193 151 l 1
 545 569 l 1
 573 569 l 1
 568 503 l 1
 207 75 l 1
229 570 m 1
 254 570 l 1
 375 389 l 1
 334 342 l 1
 224 507 l 1
 229 570 l 1
426 313 m 1
 536 147 l 1
 530 75 l 1
 512 75 l 1
 386 265 l 1
 426 313 l 1
EndSplineSet
Validated: 1
EndChar

StartChar: y
Encoding: 121 121 2
Width: 1228
VWidth: 0
Flags: W
HStem: -410 60<118 472> -378 21G<522.154 553.838> 0 60<175 511> 577 20G<155.255 186.474>
VStem: 90 555
LayerCount: 2
Fore
SplineSet
124 0 m 1x38
 175 60 l 1
 511 60 l 1
 551 0 l 1
 124 0 l 1x38
174 104 m 1
 107 24 l 1
 157 597 l 1
 213 559 l 1
 174 104 l 1
571 26 m 1
 544 66 l 1
 585 527 l 1
 618 567 l 1
 645 529 l 1
 604 63 l 1
 571 26 l 1
536 -378 m 1x78
 509 -339 l 1
 533 -65 l 1
 566 -26 l 1
 593 -63 l 1
 569 -341 l 1
 536 -378 l 1x78
90 -383 m 1
 118 -350 l 1
 479 -350 l 1
 498 -379 l 1
 472 -410 l 1
 108 -410 l 1xb8
 90 -383 l 1
EndSplineSet
Validated: 1
EndChar

StartChar: z
Encoding: 122 122 3
Width: 1228
VWidth: 0
Flags: W
HStem: 0 60<175 511> 549 20G<528.158 573> 583 60<205 559>
VStem: 124 461
LayerCount: 2
Fore
SplineSet
207 75 m 1
 186 75 l 1
 193 151 l 1
 545 569 l 1
 573 569 l 1
 568 503 l 1
 207 75 l 1
124 0 m 1
 175 60 l 1
 511 60 l 1
 551 0 l 1
 124 0 l 1
177 610 m 1
 205 643 l 1
 566 643 l 1
 585 614 l 1
 559 583 l 1
 195 583 l 1
 177 610 l 1
EndSplineSet
Validated: 1
EndChar

StartChar: braceleft
Encoding: 123 123 4
Width: 1228
VWidth: 0
Flags: W
HStem: -410 60<601 955> -378 21G<522.154 553.838> 583 60<205 559> 1168 60<734 1070> 1182 20G<656.564 688.595>
LayerCount: 2
Fore
SplineSet
691 1228 m 1x30
 1121 1228 l 1
 1070 1168 l 1
 734 1168 l 1
 691 1228 l 1x30
627 662 m 1
 600 702 l 1
 640 1163 l 1
 674 1202 l 1x28
 701 1165 l 1
 660 699 l 1
 627 662 l 1
571 26 m 1
 544 66 l 1
 585 527 l 1
 618 567 l 1
 645 529 l 1
 604 63 l 1
 571 26 l 1
177 610 m 1
 205 643 l 1
 566 643 l 1
 585 614 l 1
 559 583 l 1
 195 583 l 1
 177 610 l 1
536 -378 m 1x60
 509 -339 l 1
 533 -65 l 1
 566 -26 l 1
 593 -63 l 1
 569 -341 l 1
 536 -378 l 1x60
573 -383 m 1
 601 -350 l 1
 962 -350 l 1
 981 -379 l 1
 955 -410 l 1
 591 -410 l 1xa0
 573 -383 l 1
EndSplineSet
Validated: 1
EndChar

StartChar: bar
Encoding: 124 124 5
Width: 1228
VWidth: 0
Flags: W
VStem: 509 192
LayerCount: 2
Fore
SplineSet
627 662 m 1
 600 702 l 1
 640 1163 l 1
 674 1202 l 1
 701 1165 l 1
 660 699 l 1
 627 662 l 1
571 26 m 1
 544 66 l 1
 585 527 l 1
 618 567 l 1
 645 529 l 1
 604 63 l 1
 571 26 l 1
536 -378 m 1
 509 -339 l 1
 533 -65 l 1
 566 -26 l 1
 593 -63 l 1
 569 -341 l 1
 536 -378 l 1
EndSplineSet
Validated: 1
EndChar

StartChar: braceright
Encoding: 125 125 6
Width: 1228
VWidth: 0
Flags: W
HStem: -410 60<118 472> -378 21G<522.154 553.838> 583 60<688 1042> 1168 60<270 606> 1182 20G<656.564 688.595>
LayerCount: 2
Fore
SplineSet
227 1228 m 1x30
 657 1228 l 1
 606 1168 l 1
 270 1168 l 1
 227 1228 l 1x30
627 662 m 1
 600 702 l 1
 640 1163 l 1
 674 1202 l 1x28
 701 1165 l 1
 660 699 l 1
 627 662 l 1
571 26 m 1
 544 66 l 1
 585 527 l 1
 618 567 l 1
 645 529 l 1
 604 63 l 1
 571 26 l 1
660 610 m 1
 688 643 l 1
 1049 643 l 1
 1068 614 l 1
 1042 583 l 1
 678 583 l 1
 660 610 l 1
536 -378 m 1x60
 509 -339 l 1
 533 -65 l 1
 566 -26 l 1
 593 -63 l 1
 569 -341 l 1
 536 -378 l 1x60
90 -383 m 1
 118 -350 l 1
 479 -350 l 1
 498 -379 l 1
 472 -410 l 1
 108 -410 l 1xa0
 90 -383 l 1
EndSplineSet
Validated: 1
EndChar

StartChar: asciitilde
Encoding: 126 126 7
Width: 1228
VWidth: 0
Flags: W
HStem: 0 60<639 975> 583 60<205 559>
LayerCount: 2
Fore
SplineSet
588 0 m 1
 639 60 l 1
 975 60 l 1
 1015 0 l 1
 588 0 l 1
982 104 m 1
 1022 560 l 1
 1085 597 l 1
 1035 24 l 1
 982 104 l 1
174 104 m 1
 107 24 l 1
 157 597 l 1
 213 559 l 1
 174 104 l 1
571 26 m 1
 544 66 l 1
 585 527 l 1
 618 567 l 1
 645 529 l 1
 604 63 l 1
 571 26 l 1
177 610 m 1
 205 643 l 1
 566 643 l 1
 585 614 l 1
 559 583 l 1
 195 583 l 1
 177 610 l 1
EndSplineSet
Validated: 1
EndChar

StartChar: exclam
Encoding: 33 33 9
Width: 1228
VWidth: 0
Flags: W
HStem: -108 81<439.014 519.987>
VStem: 439 81<-107.987 -27.0139>
LayerCount: 2
Fore
SplineSet
627 662 m 1
 600 702 l 1
 640 1163 l 1
 674 1202 l 1
 701 1165 l 1
 660 699 l 1
 627 662 l 1
439 -68 m 0
 439 -46 458 -27 480 -27 c 0
 502 -27 520 -46 520 -68 c 0
 520 -90 502 -108 480 -108 c 0
 458 -108 439 -90 439 -68 c 0
EndSplineSet
Validated: 1
EndChar

StartChar: quotedbl
Encoding: 34 34 10
Width: 1228
VWidth: 0
Flags: W
HStem: 631 573
VStem: 160 541
LayerCount: 2
Fore
SplineSet
223 668 m 1
 160 631 l 1
 210 1204 l 1
 263 1125 l 1
 223 668 l 1
627 662 m 1
 600 702 l 1
 640 1163 l 1
 674 1202 l 1
 701 1165 l 1
 660 699 l 1
 627 662 l 1
EndSplineSet
Validated: 1
EndChar

StartChar: numbersign
Encoding: 35 35 11
Width: 1228
VWidth: 0
Flags: W
HStem: 0 60<175 511 639 975> 583 60<205 559 688 1042>
LayerCount: 2
Fore
SplineSet
124 0 m 1
 175 60 l 1
 511 60 l 1
 551 0 l 1
 124 0 l 1
588 0 m 1
 639 60 l 1
 975 60 l 1
 1015 0 l 1
 588 0 l 1
627 662 m 1
 600 702 l 1
 640 1163 l 1
 674 1202 l 1
 701 1165 l 1
 660 699 l 1
 627 662 l 1
571 26 m 1
 544 66 l 1
 585 527 l 1
 618 567 l 1
 645 529 l 1
 604 63 l 1
 571 26 l 1
660 610 m 1
 688 643 l 1
 1049 643 l 1
 1068 614 l 1
 1042 583 l 1
 678 583 l 1
 660 610 l 1
177 610 m 1
 205 643 l 1
 566 643 l 1
 585 614 l 1
 559 583 l 1
 195 583 l 1
 177 610 l 1
536 -378 m 1
 509 -339 l 1
 533 -65 l 1
 566 -26 l 1
 593 -63 l 1
 569 -341 l 1
 536 -378 l 1
EndSplineSet
Validated: 1
EndChar

StartChar: dollar
Encoding: 36 36 12
Width: 1228
VWidth: 0
Flags: W
HStem: 0 60<175 511 639 975> 583 60<205 559 688 1042> 1168 60<270 606 734 1070>
LayerCount: 2
Fore
SplineSet
124 0 m 1
 175 60 l 1
 511 60 l 1
 551 0 l 1
 124 0 l 1
588 0 m 1
 639 60 l 1
 975 60 l 1
 1015 0 l 1
 588 0 l 1
982 104 m 1
 1022 560 l 1
 1085 597 l 1
 1035 24 l 1
 982 104 l 1
223 668 m 1
 160 631 l 1
 210 1204 l 1
 263 1125 l 1
 223 668 l 1
691 1228 m 1
 1121 1228 l 1
 1070 1168 l 1
 734 1168 l 1
 691 1228 l 1
227 1228 m 1
 657 1228 l 1
 606 1168 l 1
 270 1168 l 1
 227 1228 l 1
627 662 m 1
 600 702 l 1
 640 1163 l 1
 674 1202 l 1
 701 1165 l 1
 660 699 l 1
 627 662 l 1
571 26 m 1
 544 66 l 1
 585 527 l 1
 618 567 l 1
 645 529 l 1
 604 63 l 1
 571 26 l 1
660 610 m 1
 688 643 l 1
 1049 643 l 1
 1068 614 l 1
 1042 583 l 1
 678 583 l 1
 660 610 l 1
177 610 m 1
 205 643 l 1
 566 643 l 1
 585 614 l 1
 559 583 l 1
 195 583 l 1
 177 610 l 1
536 -378 m 1
 509 -339 l 1
 533 -65 l 1
 566 -26 l 1
 593 -63 l 1
 569 -341 l 1
 536 -378 l 1
EndSplineSet
Validated: 1
EndChar

StartChar: percent
Encoding: 37 37 13
Width: 1228
VWidth: 0
Flags: W
HStem: 0 60<639 975> 583 60<205 559 688 1042> 1168 60<270 606>
LayerCount: 2
Fore
SplineSet
207 75 m 1
 186 75 l 1
 193 151 l 1
 545 569 l 1
 573 569 l 1
 568 503 l 1
 207 75 l 1
699 659 m 1
 671 659 l 1
 677 726 l 1
 1038 1154 l 1
 1059 1154 l 1
 1052 1077 l 1
 699 659 l 1
588 0 m 1
 639 60 l 1
 975 60 l 1
 1015 0 l 1
 588 0 l 1
982 104 m 1
 1022 560 l 1
 1085 597 l 1
 1035 24 l 1
 982 104 l 1
223 668 m 1
 160 631 l 1
 210 1204 l 1
 263 1125 l 1
 223 668 l 1
227 1228 m 1
 657 1228 l 1
 606 1168 l 1
 270 1168 l 1
 227 1228 l 1
627 662 m 1
 600 702 l 1
 640 1163 l 1
 674 1202 l 1
 701 1165 l 1
 660 699 l 1
 627 662 l 1
571 26 m 1
 544 66 l 1
 585 527 l 1
 618 567 l 1
 645 529 l 1
 604 63 l 1
 571 26 l 1
660 610 m 1
 688 643 l 1
 1049 643 l 1
 1068 614 l 1
 1042 583 l 1
 678 583 l 1
 660 610 l 1
177 610 m 1
 205 643 l 1
 566 643 l 1
 585 614 l 1
 559 583 l 1
 195 583 l 1
 177 610 l 1
EndSplineSet
Validated: 1
EndChar

StartChar: ampersand
Encoding: 38 38 14
Width: 1228
VWidth: 0
Flags: W
HStem: 0 60<175 511 639 975> 583 60<205 559> 1168 60<270 606>
LayerCount: 2
Fore
SplineSet
947 75 m 1
 658 507 l 1
 664 569 l 1
 688 569 l 1
 971 147 l 1
 965 75 l 1
 947 75 l 1
124 0 m 1
 175 60 l 1
 511 60 l 1
 551 0 l 1
 124 0 l 1
588 0 m 1
 639 60 l 1
 975 60 l 1
 1015 0 l 1
 588 0 l 1
982 104 m 1
 1022 560 l 1
 1085 597 l 1
 1035 24 l 1
 982 104 l 1
223 668 m 1
 160 631 l 1
 210 1204 l 1
 263 1125 l 1
 223 668 l 1
174 104 m 1
 107 24 l 1
 157 597 l 1
 213 559 l 1
 174 104 l 1
227 1228 m 1
 657 1228 l 1
 606 1168 l 1
 270 1168 l 1
 227 1228 l 1
627 662 m 1
 600 702 l 1
 640 1163 l 1
 674 1202 l 1
 701 1165 l 1
 660 699 l 1
 627 662 l 1
177 610 m 1
 205 643 l 1
 566 643 l 1
 585 614 l 1
 559 583 l 1
 195 583 l 1
 177 610 l 1
EndSplineSet
Validated: 1
EndChar

StartChar: quotesingle
Encoding: 39 39 15
Width: 1228
VWidth: 0
Flags: W
HStem: 659 495
VStem: 671 388
LayerCount: 2
Fore
SplineSet
699 659 m 1
 671 659 l 1
 677 726 l 1
 1038 1154 l 1
 1059 1154 l 1
 1052 1077 l 1
 699 659 l 1
EndSplineSet
Validated: 1
EndChar

StartChar: parenleft
Encoding: 40 40 16
Width: 1228
VWidth: 0
Flags: W
HStem: 0 60<175 511> 1168 60<270 606>
VStem: 107 550
LayerCount: 2
Fore
SplineSet
124 0 m 1
 175 60 l 1
 511 60 l 1
 551 0 l 1
 124 0 l 1
223 668 m 1
 160 631 l 1
 210 1204 l 1
 263 1125 l 1
 223 668 l 1
174 104 m 1
 107 24 l 1
 157 597 l 1
 213 559 l 1
 174 104 l 1
227 1228 m 1
 657 1228 l 1
 606 1168 l 1
 270 1168 l 1
 227 1228 l 1
EndSplineSet
Validated: 1
EndChar

StartChar: parenright
Encoding: 41 41 17
Width: 1228
VWidth: 0
Flags: W
HStem: 0 60<175 511> 1168 60<270 606>
VStem: 124 577
LayerCount: 2
Fore
SplineSet
124 0 m 1
 175 60 l 1
 511 60 l 1
 551 0 l 1
 124 0 l 1
227 1228 m 1
 657 1228 l 1
 606 1168 l 1
 270 1168 l 1
 227 1228 l 1
627 662 m 1
 600 702 l 1
 640 1163 l 1
 674 1202 l 1
 701 1165 l 1
 660 699 l 1
 627 662 l 1
571 26 m 1
 544 66 l 1
 585 527 l 1
 618 567 l 1
 645 529 l 1
 604 63 l 1
 571 26 l 1
EndSplineSet
Validated: 1
EndChar

StartChar: asterisk
Encoding: 42 42 18
Width: 1228
VWidth: 0
Flags: W
HStem: 583 60<205 559 688 1042>
LayerCount: 2
Fore
SplineSet
207 75 m 1
 186 75 l 1
 193 151 l 1
 545 569 l 1
 573 569 l 1
 568 503 l 1
 207 75 l 1
947 75 m 1
 658 507 l 1
 664 569 l 1
 688 569 l 1
 971 147 l 1
 965 75 l 1
 947 75 l 1
699 659 m 1
 671 659 l 1
 677 726 l 1
 1038 1154 l 1
 1059 1154 l 1
 1052 1077 l 1
 699 659 l 1
556 659 m 1
 274 1081 l 1
 280 1154 l 1
 298 1154 l 1
 587 722 l 1
 581 659 l 1
 556 659 l 1
627 662 m 1
 600 702 l 1
 640 1163 l 1
 674 1202 l 1
 701 1165 l 1
 660 699 l 1
 627 662 l 1
571 26 m 1
 544 66 l 1
 585 527 l 1
 618 567 l 1
 645 529 l 1
 604 63 l 1
 571 26 l 1
660 610 m 1
 688 643 l 1
 1049 643 l 1
 1068 614 l 1
 1042 583 l 1
 678 583 l 1
 660 610 l 1
177 610 m 1
 205 643 l 1
 566 643 l 1
 585 614 l 1
 559 583 l 1
 195 583 l 1
 177 610 l 1
EndSplineSet
Validated: 1
EndChar

StartChar: plus
Encoding: 43 43 19
Width: 1228
VWidth: 0
Flags: W
HStem: 583 60<205 559 688 1042>
LayerCount: 2
Fore
SplineSet
627 662 m 1
 600 702 l 1
 640 1163 l 1
 674 1202 l 1
 701 1165 l 1
 660 699 l 1
 627 662 l 1
571 26 m 1
 544 66 l 1
 585 527 l 1
 618 567 l 1
 645 529 l 1
 604 63 l 1
 571 26 l 1
660 610 m 1
 688 643 l 1
 1049 643 l 1
 1068 614 l 1
 1042 583 l 1
 678 583 l 1
 660 610 l 1
177 610 m 1
 205 643 l 1
 566 643 l 1
 585 614 l 1
 559 583 l 1
 195 583 l 1
 177 610 l 1
EndSplineSet
Validated: 1
EndChar

StartChar: comma
Encoding: 44 44 20
Width: 1228
VWidth: 0
Flags: W
HStem: -108 81<439.014 519.987>
VStem: 439 81<-107.987 -27.0139>
LayerCount: 2
Fore
SplineSet
439 -68 m 0
 439 -46 458 -27 480 -27 c 0
 502 -27 520 -46 520 -68 c 0
 520 -90 502 -108 480 -108 c 0
 458 -108 439 -90 439 -68 c 0
536 -378 m 1
 509 -339 l 1
 533 -65 l 1
 566 -26 l 1
 593 -63 l 1
 569 -341 l 1
 536 -378 l 1
EndSplineSet
Validated: 1
EndChar

StartChar: hyphen
Encoding: 45 45 21
Width: 1228
VWidth: 0
Flags: W
HStem: 583 60<205 559 688 1042>
LayerCount: 2
Fore
SplineSet
660 610 m 1
 688 643 l 1
 1049 643 l 1
 1068 614 l 1
 1042 583 l 1
 678 583 l 1
 660 610 l 1
177 610 m 1
 205 643 l 1
 566 643 l 1
 585 614 l 1
 559 583 l 1
 195 583 l 1
 177 610 l 1
EndSplineSet
Validated: 1
EndChar

StartChar: period
Encoding: 46 46 22
Width: 1228
VWidth: 0
Flags: W
HStem: -108 81<439.014 519.987>
VStem: 439 81<-107.987 -27.0139>
LayerCount: 2
Fore
SplineSet
439 -68 m 0
 439 -46 458 -27 480 -27 c 0
 502 -27 520 -46 520 -68 c 0
 520 -90 502 -108 480 -108 c 0
 458 -108 439 -90 439 -68 c 0
EndSplineSet
Validated: 1
EndChar

StartChar: slash
Encoding: 47 47 23
Width: 1228
VWidth: 0
Flags: W
LayerCount: 2
Fore
SplineSet
207 75 m 1
 186 75 l 1
 193 151 l 1
 545 569 l 1
 573 569 l 1
 568 503 l 1
 207 75 l 1
699 659 m 1
 671 659 l 1
 677 726 l 1
 1038 1154 l 1
 1059 1154 l 1
 1052 1077 l 1
 699 659 l 1
EndSplineSet
Validated: 1
EndChar

StartChar: zero
Encoding: 48 48 24
Width: 1228
VWidth: 0
Flags: W
HStem: 0 60<175 511> 1168 60<270 606>
VStem: 107 594
LayerCount: 2
Fore
SplineSet
124 0 m 1
 175 60 l 1
 511 60 l 1
 551 0 l 1
 124 0 l 1
223 668 m 1
 160 631 l 1
 210 1204 l 1
 263 1125 l 1
 223 668 l 1
174 104 m 1
 107 24 l 1
 157 597 l 1
 213 559 l 1
 174 104 l 1
227 1228 m 1
 657 1228 l 1
 606 1168 l 1
 270 1168 l 1
 227 1228 l 1
627 662 m 1
 600 702 l 1
 640 1163 l 1
 674 1202 l 1
 701 1165 l 1
 660 699 l 1
 627 662 l 1
571 26 m 1
 544 66 l 1
 585 527 l 1
 618 567 l 1
 645 529 l 1
 604 63 l 1
 571 26 l 1
EndSplineSet
Validated: 1
EndChar

StartChar: one
Encoding: 49 49 25
Width: 1228
VWidth: 0
Flags: W
VStem: 544 157
LayerCount: 2
Fore
SplineSet
627 662 m 1
 600 702 l 1
 640 1163 l 1
 674 1202 l 1
 701 1165 l 1
 660 699 l 1
 627 662 l 1
571 26 m 1
 544 66 l 1
 585 527 l 1
 618 567 l 1
 645 529 l 1
 604 63 l 1
 571 26 l 1
EndSplineSet
Validated: 1
EndChar

StartChar: two
Encoding: 50 50 26
Width: 1228
VWidth: 0
Flags: W
HStem: 0 60<175 511> 583 60<205 559> 1168 60<270 606>
VStem: 107 594
LayerCount: 2
Fore
SplineSet
124 0 m 1
 175 60 l 1
 511 60 l 1
 551 0 l 1
 124 0 l 1
174 104 m 1
 107 24 l 1
 157 597 l 1
 213 559 l 1
 174 104 l 1
227 1228 m 1
 657 1228 l 1
 606 1168 l 1
 270 1168 l 1
 227 1228 l 1
627 662 m 1
 600 702 l 1
 640 1163 l 1
 674 1202 l 1
 701 1165 l 1
 660 699 l 1
 627 662 l 1
177 610 m 1
 205 643 l 1
 566 643 l 1
 585 614 l 1
 559 583 l 1
 195 583 l 1
 177 610 l 1
EndSplineSet
Validated: 1
EndChar

StartChar: three
Encoding: 51 51 27
Width: 1228
VWidth: 0
Flags: W
HStem: 0 60<175 511> 583 60<205 559> 1168 60<270 606>
VStem: 124 577
LayerCount: 2
Fore
SplineSet
124 0 m 1
 175 60 l 1
 511 60 l 1
 551 0 l 1
 124 0 l 1
227 1228 m 1
 657 1228 l 1
 606 1168 l 1
 270 1168 l 1
 227 1228 l 1
627 662 m 1
 600 702 l 1
 640 1163 l 1
 674 1202 l 1
 701 1165 l 1
 660 699 l 1
 627 662 l 1
571 26 m 1
 544 66 l 1
 585 527 l 1
 618 567 l 1
 645 529 l 1
 604 63 l 1
 571 26 l 1
177 610 m 1
 205 643 l 1
 566 643 l 1
 585 614 l 1
 559 583 l 1
 195 583 l 1
 177 610 l 1
EndSplineSet
Validated: 1
EndChar

StartChar: four
Encoding: 52 52 28
Width: 1228
VWidth: 0
Flags: W
HStem: 583 60<205 559>
VStem: 160 541
LayerCount: 2
Fore
SplineSet
223 668 m 1
 160 631 l 1
 210 1204 l 1
 263 1125 l 1
 223 668 l 1
627 662 m 1
 600 702 l 1
 640 1163 l 1
 674 1202 l 1
 701 1165 l 1
 660 699 l 1
 627 662 l 1
571 26 m 1
 544 66 l 1
 585 527 l 1
 618 567 l 1
 645 529 l 1
 604 63 l 1
 571 26 l 1
177 610 m 1
 205 643 l 1
 566 643 l 1
 585 614 l 1
 559 583 l 1
 195 583 l 1
 177 610 l 1
EndSplineSet
Validated: 1
EndChar

StartChar: five
Encoding: 53 53 29
Width: 1228
VWidth: 0
Flags: W
HStem: 0 60<175 511> 583 60<205 559> 1168 60<270 606>
VStem: 124 533
LayerCount: 2
Fore
SplineSet
124 0 m 1
 175 60 l 1
 511 60 l 1
 551 0 l 1
 124 0 l 1
223 668 m 1
 160 631 l 1
 210 1204 l 1
 263 1125 l 1
 223 668 l 1
227 1228 m 1
 657 1228 l 1
 606 1168 l 1
 270 1168 l 1
 227 1228 l 1
571 26 m 1
 544 66 l 1
 585 527 l 1
 618 567 l 1
 645 529 l 1
 604 63 l 1
 571 26 l 1
177 610 m 1
 205 643 l 1
 566 643 l 1
 585 614 l 1
 559 583 l 1
 195 583 l 1
 177 610 l 1
EndSplineSet
Validated: 1
EndChar

StartChar: six
Encoding: 54 54 30
Width: 1228
VWidth: 0
Flags: W
HStem: 0 60<175 511> 583 60<205 559> 1168 60<270 606>
VStem: 107 550
LayerCount: 2
Fore
SplineSet
124 0 m 1
 175 60 l 1
 511 60 l 1
 551 0 l 1
 124 0 l 1
223 668 m 1
 160 631 l 1
 210 1204 l 1
 263 1125 l 1
 223 668 l 1
174 104 m 1
 107 24 l 1
 157 597 l 1
 213 559 l 1
 174 104 l 1
227 1228 m 1
 657 1228 l 1
 606 1168 l 1
 270 1168 l 1
 227 1228 l 1
571 26 m 1
 544 66 l 1
 585 527 l 1
 618 567 l 1
 645 529 l 1
 604 63 l 1
 571 26 l 1
177 610 m 1
 205 643 l 1
 566 643 l 1
 585 614 l 1
 559 583 l 1
 195 583 l 1
 177 610 l 1
EndSplineSet
Validated: 1
EndChar

StartChar: seven
Encoding: 55 55 31
Width: 1228
VWidth: 0
Flags: W
HStem: 1168 60<270 606>
VStem: 227 474
LayerCount: 2
Fore
SplineSet
227 1228 m 1
 657 1228 l 1
 606 1168 l 1
 270 1168 l 1
 227 1228 l 1
627 662 m 1
 600 702 l 1
 640 1163 l 1
 674 1202 l 1
 701 1165 l 1
 660 699 l 1
 627 662 l 1
571 26 m 1
 544 66 l 1
 585 527 l 1
 618 567 l 1
 645 529 l 1
 604 63 l 1
 571 26 l 1
EndSplineSet
Validated: 1
EndChar

StartChar: eight
Encoding: 56 56 32
Width: 1228
VWidth: 0
Flags: W
HStem: 0 60<175 511> 583 60<205 559> 1168 60<270 606>
VStem: 107 594
LayerCount: 2
Fore
SplineSet
124 0 m 1
 175 60 l 1
 511 60 l 1
 551 0 l 1
 124 0 l 1
223 668 m 1
 160 631 l 1
 210 1204 l 1
 263 1125 l 1
 223 668 l 1
174 104 m 1
 107 24 l 1
 157 597 l 1
 213 559 l 1
 174 104 l 1
227 1228 m 1
 657 1228 l 1
 606 1168 l 1
 270 1168 l 1
 227 1228 l 1
627 662 m 1
 600 702 l 1
 640 1163 l 1
 674 1202 l 1
 701 1165 l 1
 660 699 l 1
 627 662 l 1
571 26 m 1
 544 66 l 1
 585 527 l 1
 618 567 l 1
 645 529 l 1
 604 63 l 1
 571 26 l 1
177 610 m 1
 205 643 l 1
 566 643 l 1
 585 614 l 1
 559 583 l 1
 195 583 l 1
 177 610 l 1
EndSplineSet
Validated: 1
EndChar

StartChar: nine
Encoding: 57 57 33
Width: 1228
VWidth: 0
Flags: W
HStem: 583 60<205 559> 1168 60<270 606>
VStem: 160 541
LayerCount: 2
Fore
SplineSet
223 668 m 1
 160 631 l 1
 210 1204 l 1
 263 1125 l 1
 223 668 l 1
227 1228 m 1
 657 1228 l 1
 606 1168 l 1
 270 1168 l 1
 227 1228 l 1
627 662 m 1
 600 702 l 1
 640 1163 l 1
 674 1202 l 1
 701 1165 l 1
 660 699 l 1
 627 662 l 1
571 26 m 1
 544 66 l 1
 585 527 l 1
 618 567 l 1
 645 529 l 1
 604 63 l 1
 571 26 l 1
177 610 m 1
 205 643 l 1
 566 643 l 1
 585 614 l 1
 559 583 l 1
 195 583 l 1
 177 610 l 1
EndSplineSet
Validated: 1
EndChar

StartChar: colon
Encoding: 58 58 34
Width: 1228
VWidth: 0
Flags: W
HStem: -108 81<439.014 519.987> 1068 81<535.013 615.986>
VStem: 439 81<-107.987 -27.0139> 535 81<1068.01 1148.99>
LayerCount: 2
Fore
SplineSet
535 1109 m 0
 535 1131 553 1149 575 1149 c 0
 597 1149 616 1131 616 1109 c 0
 616 1087 597 1068 575 1068 c 0
 553 1068 535 1087 535 1109 c 0
439 -68 m 0
 439 -46 458 -27 480 -27 c 0
 502 -27 520 -46 520 -68 c 0
 520 -90 502 -108 480 -108 c 0
 458 -108 439 -90 439 -68 c 0
EndSplineSet
Validated: 1
EndChar

StartChar: semicolon
Encoding: 59 59 35
Width: 1228
VWidth: 0
Flags: W
HStem: -108 81<439.014 519.987> 1068 81<535.013 615.986>
VStem: 439 81<-107.987 -27.0139> 535 81<1068.01 1148.99>
LayerCount: 2
Fore
SplineSet
535 1109 m 0
 535 1131 553 1149 575 1149 c 0
 597 1149 616 1131 616 1109 c 0
 616 1087 597 1068 575 1068 c 0
 553 1068 535 1087 535 1109 c 0
439 -68 m 0
 439 -46 458 -27 480 -27 c 0
 502 -27 520 -46 520 -68 c 0
 520 -90 502 -108 480 -108 c 0
 458 -108 439 -90 439 -68 c 0
536 -378 m 1
 509 -339 l 1
 533 -65 l 1
 566 -26 l 1
 593 -63 l 1
 569 -341 l 1
 536 -378 l 1
EndSplineSet
Validated: 1
EndChar

StartChar: less
Encoding: 60 60 36
Width: 1228
VWidth: 0
Flags: W
HStem: 0 60<175 511>
VStem: 124 449
LayerCount: 2
Fore
SplineSet
207 75 m 1
 186 75 l 1
 193 151 l 1
 545 569 l 1
 573 569 l 1
 568 503 l 1
 207 75 l 1
124 0 m 1
 175 60 l 1
 511 60 l 1
 551 0 l 1
 124 0 l 1
EndSplineSet
Validated: 1
EndChar

StartChar: equal
Encoding: 61 61 37
Width: 1228
VWidth: 0
Flags: W
HStem: 0 60<175 511 639 975> 583 60<205 559 688 1042>
LayerCount: 2
Fore
SplineSet
124 0 m 1
 175 60 l 1
 511 60 l 1
 551 0 l 1
 124 0 l 1
588 0 m 1
 639 60 l 1
 975 60 l 1
 1015 0 l 1
 588 0 l 1
660 610 m 1
 688 643 l 1
 1049 643 l 1
 1068 614 l 1
 1042 583 l 1
 678 583 l 1
 660 610 l 1
177 610 m 1
 205 643 l 1
 566 643 l 1
 585 614 l 1
 559 583 l 1
 195 583 l 1
 177 610 l 1
EndSplineSet
Validated: 1
EndChar

StartChar: greater
Encoding: 62 62 38
Width: 1228
VWidth: 0
Flags: W
HStem: 0 60<639 975>
VStem: 588 427
LayerCount: 2
Fore
SplineSet
947 75 m 1
 658 507 l 1
 664 569 l 1
 688 569 l 1
 971 147 l 1
 965 75 l 1
 947 75 l 1
588 0 m 1
 639 60 l 1
 975 60 l 1
 1015 0 l 1
 588 0 l 1
EndSplineSet
Validated: 1
EndChar

StartChar: question
Encoding: 63 63 39
Width: 1228
VWidth: 0
Flags: W
HStem: -108 81<439.014 519.987> 583 60<688 1042> 1168 60<270 606 734 1070>
VStem: 439 81<-107.987 -27.0139>
LayerCount: 2
Fore
SplineSet
1031 670 m 1
 1071 1125 l 1
 1138 1204 l 1
 1088 631 l 1
 1031 670 l 1
691 1228 m 1
 1121 1228 l 1
 1070 1168 l 1
 734 1168 l 1
 691 1228 l 1
227 1228 m 1
 657 1228 l 1
 606 1168 l 1
 270 1168 l 1
 227 1228 l 1
571 26 m 1
 544 66 l 1
 585 527 l 1
 618 567 l 1
 645 529 l 1
 604 63 l 1
 571 26 l 1
660 610 m 1
 688 643 l 1
 1049 643 l 1
 1068 614 l 1
 1042 583 l 1
 678 583 l 1
 660 610 l 1
439 -68 m 0
 439 -46 458 -27 480 -27 c 0
 502 -27 520 -46 520 -68 c 0
 520 -90 502 -108 480 -108 c 0
 458 -108 439 -90 439 -68 c 0
EndSplineSet
Validated: 1
EndChar

StartChar: at
Encoding: 64 64 40
Width: 1228
VWidth: 0
Flags: W
HStem: 0 60<175 511 639 975> 583 60<205 559> 1168 60<270 606 734 1070>
LayerCount: 2
Fore
SplineSet
124 0 m 1
 175 60 l 1
 511 60 l 1
 551 0 l 1
 124 0 l 1
588 0 m 1
 639 60 l 1
 975 60 l 1
 1015 0 l 1
 588 0 l 1
1031 670 m 1
 1071 1125 l 1
 1138 1204 l 1
 1088 631 l 1
 1031 670 l 1
982 104 m 1
 1022 560 l 1
 1085 597 l 1
 1035 24 l 1
 982 104 l 1
174 104 m 1
 107 24 l 1
 157 597 l 1
 213 559 l 1
 174 104 l 1
691 1228 m 1
 1121 1228 l 1
 1070 1168 l 1
 734 1168 l 1
 691 1228 l 1
227 1228 m 1
 657 1228 l 1
 606 1168 l 1
 270 1168 l 1
 227 1228 l 1
571 26 m 1
 544 66 l 1
 585 527 l 1
 618 567 l 1
 645 529 l 1
 604 63 l 1
 571 26 l 1
177 610 m 1
 205 643 l 1
 566 643 l 1
 585 614 l 1
 559 583 l 1
 195 583 l 1
 177 610 l 1
EndSplineSet
Validated: 1
EndChar

StartChar: A
Encoding: 65 65 41
Width: 1228
VWidth: 0
Flags: W
HStem: 583 60<205 559 688 1042> 1168 60<270 606 734 1070>
LayerCount: 2
Fore
SplineSet
1031 670 m 1
 1071 1125 l 1
 1138 1204 l 1
 1088 631 l 1
 1031 670 l 1
982 104 m 1
 1022 560 l 1
 1085 597 l 1
 1035 24 l 1
 982 104 l 1
223 668 m 1
 160 631 l 1
 210 1204 l 1
 263 1125 l 1
 223 668 l 1
174 104 m 1
 107 24 l 1
 157 597 l 1
 213 559 l 1
 174 104 l 1
691 1228 m 1
 1121 1228 l 1
 1070 1168 l 1
 734 1168 l 1
 691 1228 l 1
227 1228 m 1
 657 1228 l 1
 606 1168 l 1
 270 1168 l 1
 227 1228 l 1
660 610 m 1
 688 643 l 1
 1049 643 l 1
 1068 614 l 1
 1042 583 l 1
 678 583 l 1
 660 610 l 1
177 610 m 1
 205 643 l 1
 566 643 l 1
 585 614 l 1
 559 583 l 1
 195 583 l 1
 177 610 l 1
EndSplineSet
Validated: 1
EndChar

StartChar: B
Encoding: 66 66 42
Width: 1228
VWidth: 0
Flags: W
HStem: 0 60<175 511 639 975> 583 60<688 1042> 1168 60<270 606 734 1070>
LayerCount: 2
Fore
SplineSet
124 0 m 1
 175 60 l 1
 511 60 l 1
 551 0 l 1
 124 0 l 1
588 0 m 1
 639 60 l 1
 975 60 l 1
 1015 0 l 1
 588 0 l 1
1031 670 m 1
 1071 1125 l 1
 1138 1204 l 1
 1088 631 l 1
 1031 670 l 1
982 104 m 1
 1022 560 l 1
 1085 597 l 1
 1035 24 l 1
 982 104 l 1
691 1228 m 1
 1121 1228 l 1
 1070 1168 l 1
 734 1168 l 1
 691 1228 l 1
227 1228 m 1
 657 1228 l 1
 606 1168 l 1
 270 1168 l 1
 227 1228 l 1
627 662 m 1
 600 702 l 1
 640 1163 l 1
 674 1202 l 1
 701 1165 l 1
 660 699 l 1
 627 662 l 1
571 26 m 1
 544 66 l 1
 585 527 l 1
 618 567 l 1
 645 529 l 1
 604 63 l 1
 571 26 l 1
660 610 m 1
 688 643 l 1
 1049 643 l 1
 1068 614 l 1
 1042 583 l 1
 678 583 l 1
 660 610 l 1
EndSplineSet
Validated: 1
EndChar

StartChar: C
Encoding: 67 67 43
Width: 1228
VWidth: 0
Flags: W
HStem: 0 60<175 511 639 975> 1168 60<270 606 734 1070>
LayerCount: 2
Fore
SplineSet
124 0 m 1
 175 60 l 1
 511 60 l 1
 551 0 l 1
 124 0 l 1
588 0 m 1
 639 60 l 1
 975 60 l 1
 1015 0 l 1
 588 0 l 1
223 668 m 1
 160 631 l 1
 210 1204 l 1
 263 1125 l 1
 223 668 l 1
174 104 m 1
 107 24 l 1
 157 597 l 1
 213 559 l 1
 174 104 l 1
691 1228 m 1
 1121 1228 l 1
 1070 1168 l 1
 734 1168 l 1
 691 1228 l 1
227 1228 m 1
 657 1228 l 1
 606 1168 l 1
 270 1168 l 1
 227 1228 l 1
EndSplineSet
Validated: 1
EndChar

StartChar: D
Encoding: 68 68 44
Width: 1228
VWidth: 0
Flags: W
HStem: 0 60<175 511 639 975> 1168 60<270 606 734 1070>
LayerCount: 2
Fore
SplineSet
124 0 m 1
 175 60 l 1
 511 60 l 1
 551 0 l 1
 124 0 l 1
588 0 m 1
 639 60 l 1
 975 60 l 1
 1015 0 l 1
 588 0 l 1
1031 670 m 1
 1071 1125 l 1
 1138 1204 l 1
 1088 631 l 1
 1031 670 l 1
982 104 m 1
 1022 560 l 1
 1085 597 l 1
 1035 24 l 1
 982 104 l 1
691 1228 m 1
 1121 1228 l 1
 1070 1168 l 1
 734 1168 l 1
 691 1228 l 1
227 1228 m 1
 657 1228 l 1
 606 1168 l 1
 270 1168 l 1
 227 1228 l 1
627 662 m 1
 600 702 l 1
 640 1163 l 1
 674 1202 l 1
 701 1165 l 1
 660 699 l 1
 627 662 l 1
571 26 m 1
 544 66 l 1
 585 527 l 1
 618 567 l 1
 645 529 l 1
 604 63 l 1
 571 26 l 1
EndSplineSet
Validated: 1
EndChar

StartChar: E
Encoding: 69 69 45
Width: 1228
VWidth: 0
Flags: W
HStem: 0 60<175 511 639 975> 583 60<205 559> 1168 60<270 606 734 1070>
LayerCount: 2
Fore
SplineSet
124 0 m 1
 175 60 l 1
 511 60 l 1
 551 0 l 1
 124 0 l 1
588 0 m 1
 639 60 l 1
 975 60 l 1
 1015 0 l 1
 588 0 l 1
223 668 m 1
 160 631 l 1
 210 1204 l 1
 263 1125 l 1
 223 668 l 1
174 104 m 1
 107 24 l 1
 157 597 l 1
 213 559 l 1
 174 104 l 1
691 1228 m 1
 1121 1228 l 1
 1070 1168 l 1
 734 1168 l 1
 691 1228 l 1
227 1228 m 1
 657 1228 l 1
 606 1168 l 1
 270 1168 l 1
 227 1228 l 1
177 610 m 1
 205 643 l 1
 566 643 l 1
 585 614 l 1
 559 583 l 1
 195 583 l 1
 177 610 l 1
EndSplineSet
Validated: 1
EndChar

StartChar: F
Encoding: 70 70 46
Width: 1228
VWidth: 0
Flags: W
HStem: 583 60<205 559> 1168 60<270 606 734 1070>
LayerCount: 2
Fore
SplineSet
223 668 m 1
 160 631 l 1
 210 1204 l 1
 263 1125 l 1
 223 668 l 1
174 104 m 1
 107 24 l 1
 157 597 l 1
 213 559 l 1
 174 104 l 1
691 1228 m 1
 1121 1228 l 1
 1070 1168 l 1
 734 1168 l 1
 691 1228 l 1
227 1228 m 1
 657 1228 l 1
 606 1168 l 1
 270 1168 l 1
 227 1228 l 1
177 610 m 1
 205 643 l 1
 566 643 l 1
 585 614 l 1
 559 583 l 1
 195 583 l 1
 177 610 l 1
EndSplineSet
Validated: 1
EndChar

StartChar: G
Encoding: 71 71 47
Width: 1228
VWidth: 0
Flags: W
HStem: 0 60<175 511 639 975> 583 60<688 1042> 1168 60<270 606 734 1070>
LayerCount: 2
Fore
SplineSet
124 0 m 1
 175 60 l 1
 511 60 l 1
 551 0 l 1
 124 0 l 1
588 0 m 1
 639 60 l 1
 975 60 l 1
 1015 0 l 1
 588 0 l 1
982 104 m 1
 1022 560 l 1
 1085 597 l 1
 1035 24 l 1
 982 104 l 1
223 668 m 1
 160 631 l 1
 210 1204 l 1
 263 1125 l 1
 223 668 l 1
174 104 m 1
 107 24 l 1
 157 597 l 1
 213 559 l 1
 174 104 l 1
691 1228 m 1
 1121 1228 l 1
 1070 1168 l 1
 734 1168 l 1
 691 1228 l 1
227 1228 m 1
 657 1228 l 1
 606 1168 l 1
 270 1168 l 1
 227 1228 l 1
660 610 m 1
 688 643 l 1
 1049 643 l 1
 1068 614 l 1
 1042 583 l 1
 678 583 l 1
 660 610 l 1
EndSplineSet
Validated: 1
EndChar

StartChar: H
Encoding: 72 72 48
Width: 1228
VWidth: 0
Flags: W
HStem: 583 60<205 559 688 1042>
LayerCount: 2
Fore
SplineSet
1031 670 m 1
 1071 1125 l 1
 1138 1204 l 1
 1088 631 l 1
 1031 670 l 1
982 104 m 1
 1022 560 l 1
 1085 597 l 1
 1035 24 l 1
 982 104 l 1
223 668 m 1
 160 631 l 1
 210 1204 l 1
 263 1125 l 1
 223 668 l 1
174 104 m 1
 107 24 l 1
 157 597 l 1
 213 559 l 1
 174 104 l 1
660 610 m 1
 688 643 l 1
 1049 643 l 1
 1068 614 l 1
 1042 583 l 1
 678 583 l 1
 660 610 l 1
177 610 m 1
 205 643 l 1
 566 643 l 1
 585 614 l 1
 559 583 l 1
 195 583 l 1
 177 610 l 1
EndSplineSet
Validated: 1
EndChar

StartChar: I
Encoding: 73 73 49
Width: 1228
VWidth: 0
Flags: W
HStem: 0 60<175 511 639 975> 1168 60<270 606 734 1070>
LayerCount: 2
Fore
SplineSet
124 0 m 1
 175 60 l 1
 511 60 l 1
 551 0 l 1
 124 0 l 1
588 0 m 1
 639 60 l 1
 975 60 l 1
 1015 0 l 1
 588 0 l 1
691 1228 m 1
 1121 1228 l 1
 1070 1168 l 1
 734 1168 l 1
 691 1228 l 1
227 1228 m 1
 657 1228 l 1
 606 1168 l 1
 270 1168 l 1
 227 1228 l 1
627 662 m 1
 600 702 l 1
 640 1163 l 1
 674 1202 l 1
 701 1165 l 1
 660 699 l 1
 627 662 l 1
571 26 m 1
 544 66 l 1
 585 527 l 1
 618 567 l 1
 645 529 l 1
 604 63 l 1
 571 26 l 1
EndSplineSet
Validated: 1
EndChar

StartChar: J
Encoding: 74 74 50
Width: 1228
VWidth: 0
Flags: W
HStem: 0 60<175 511>
VStem: 107 594
LayerCount: 2
Fore
SplineSet
124 0 m 1
 175 60 l 1
 511 60 l 1
 551 0 l 1
 124 0 l 1
174 104 m 1
 107 24 l 1
 157 597 l 1
 213 559 l 1
 174 104 l 1
627 662 m 1
 600 702 l 1
 640 1163 l 1
 674 1202 l 1
 701 1165 l 1
 660 699 l 1
 627 662 l 1
571 26 m 1
 544 66 l 1
 585 527 l 1
 618 567 l 1
 645 529 l 1
 604 63 l 1
 571 26 l 1
EndSplineSet
Validated: 1
EndChar

StartChar: K
Encoding: 75 75 51
Width: 1228
VWidth: 0
Flags: W
HStem: 583 60<205 559>
LayerCount: 2
Fore
SplineSet
947 75 m 1
 658 507 l 1
 664 569 l 1
 688 569 l 1
 971 147 l 1
 965 75 l 1
 947 75 l 1
699 659 m 1
 671 659 l 1
 677 726 l 1
 1038 1154 l 1
 1059 1154 l 1
 1052 1077 l 1
 699 659 l 1
223 668 m 1
 160 631 l 1
 210 1204 l 1
 263 1125 l 1
 223 668 l 1
174 104 m 1
 107 24 l 1
 157 597 l 1
 213 559 l 1
 174 104 l 1
177 610 m 1
 205 643 l 1
 566 643 l 1
 585 614 l 1
 559 583 l 1
 195 583 l 1
 177 610 l 1
EndSplineSet
Validated: 1
EndChar

StartChar: L
Encoding: 76 76 52
Width: 1228
VWidth: 0
Flags: W
HStem: 0 60<175 511 639 975>
LayerCount: 2
Fore
SplineSet
124 0 m 1
 175 60 l 1
 511 60 l 1
 551 0 l 1
 124 0 l 1
588 0 m 1
 639 60 l 1
 975 60 l 1
 1015 0 l 1
 588 0 l 1
223 668 m 1
 160 631 l 1
 210 1204 l 1
 263 1125 l 1
 223 668 l 1
174 104 m 1
 107 24 l 1
 157 597 l 1
 213 559 l 1
 174 104 l 1
EndSplineSet
Validated: 1
EndChar

StartChar: M
Encoding: 77 77 53
Width: 1228
VWidth: 0
Flags: W
LayerCount: 2
Fore
SplineSet
699 659 m 1
 671 659 l 1
 677 726 l 1
 1038 1154 l 1
 1059 1154 l 1
 1052 1077 l 1
 699 659 l 1
556 659 m 1
 274 1081 l 1
 280 1154 l 1
 298 1154 l 1
 587 722 l 1
 581 659 l 1
 556 659 l 1
1031 670 m 1
 1071 1125 l 1
 1138 1204 l 1
 1088 631 l 1
 1031 670 l 1
982 104 m 1
 1022 560 l 1
 1085 597 l 1
 1035 24 l 1
 982 104 l 1
223 668 m 1
 160 631 l 1
 210 1204 l 1
 263 1125 l 1
 223 668 l 1
174 104 m 1
 107 24 l 1
 157 597 l 1
 213 559 l 1
 174 104 l 1
EndSplineSet
Validated: 1
EndChar

StartChar: N
Encoding: 78 78 54
Width: 1228
VWidth: 0
Flags: W
LayerCount: 2
Fore
SplineSet
947 75 m 1
 658 507 l 1
 664 569 l 1
 688 569 l 1
 971 147 l 1
 965 75 l 1
 947 75 l 1
556 659 m 1
 274 1081 l 1
 280 1154 l 1
 298 1154 l 1
 587 722 l 1
 581 659 l 1
 556 659 l 1
1031 670 m 1
 1071 1125 l 1
 1138 1204 l 1
 1088 631 l 1
 1031 670 l 1
982 104 m 1
 1022 560 l 1
 1085 597 l 1
 1035 24 l 1
 982 104 l 1
223 668 m 1
 160 631 l 1
 210 1204 l 1
 263 1125 l 1
 223 668 l 1
174 104 m 1
 107 24 l 1
 157 597 l 1
 213 559 l 1
 174 104 l 1
EndSplineSet
Validated: 1
EndChar

StartChar: O
Encoding: 79 79 55
Width: 1228
VWidth: 0
Flags: W
HStem: 0 60<175 511 639 975> 1168 60<270 606 734 1070>
LayerCount: 2
Fore
SplineSet
124 0 m 1
 175 60 l 1
 511 60 l 1
 551 0 l 1
 124 0 l 1
588 0 m 1
 639 60 l 1
 975 60 l 1
 1015 0 l 1
 588 0 l 1
1031 670 m 1
 1071 1125 l 1
 1138 1204 l 1
 1088 631 l 1
 1031 670 l 1
982 104 m 1
 1022 560 l 1
 1085 597 l 1
 1035 24 l 1
 982 104 l 1
223 668 m 1
 160 631 l 1
 210 1204 l 1
 263 1125 l 1
 223 668 l 1
174 104 m 1
 107 24 l 1
 157 597 l 1
 213 559 l 1
 174 104 l 1
691 1228 m 1
 1121 1228 l 1
 1070 1168 l 1
 734 1168 l 1
 691 1228 l 1
227 1228 m 1
 657 1228 l 1
 606 1168 l 1
 270 1168 l 1
 227 1228 l 1
EndSplineSet
Validated: 1
EndChar

StartChar: P
Encoding: 80 80 56
Width: 1228
VWidth: 0
Flags: W
HStem: 583 60<205 559 688 1042> 1168 60<270 606 734 1070>
LayerCount: 2
Fore
SplineSet
1031 670 m 1
 1071 1125 l 1
 1138 1204 l 1
 1088 631 l 1
 1031 670 l 1
223 668 m 1
 160 631 l 1
 210 1204 l 1
 263 1125 l 1
 223 668 l 1
174 104 m 1
 107 24 l 1
 157 597 l 1
 213 559 l 1
 174 104 l 1
691 1228 m 1
 1121 1228 l 1
 1070 1168 l 1
 734 1168 l 1
 691 1228 l 1
227 1228 m 1
 657 1228 l 1
 606 1168 l 1
 270 1168 l 1
 227 1228 l 1
660 610 m 1
 688 643 l 1
 1049 643 l 1
 1068 614 l 1
 1042 583 l 1
 678 583 l 1
 660 610 l 1
177 610 m 1
 205 643 l 1
 566 643 l 1
 585 614 l 1
 559 583 l 1
 195 583 l 1
 177 610 l 1
EndSplineSet
Validated: 1
EndChar

StartChar: Q
Encoding: 81 81 57
Width: 1228
VWidth: 0
Flags: W
HStem: 0 60<175 511 639 975> 1168 60<270 606 734 1070>
LayerCount: 2
Fore
SplineSet
947 75 m 1
 658 507 l 1
 664 569 l 1
 688 569 l 1
 971 147 l 1
 965 75 l 1
 947 75 l 1
124 0 m 1
 175 60 l 1
 511 60 l 1
 551 0 l 1
 124 0 l 1
588 0 m 1
 639 60 l 1
 975 60 l 1
 1015 0 l 1
 588 0 l 1
1031 670 m 1
 1071 1125 l 1
 1138 1204 l 1
 1088 631 l 1
 1031 670 l 1
982 104 m 1
 1022 560 l 1
 1085 597 l 1
 1035 24 l 1
 982 104 l 1
223 668 m 1
 160 631 l 1
 210 1204 l 1
 263 1125 l 1
 223 668 l 1
174 104 m 1
 107 24 l 1
 157 597 l 1
 213 559 l 1
 174 104 l 1
691 1228 m 1
 1121 1228 l 1
 1070 1168 l 1
 734 1168 l 1
 691 1228 l 1
227 1228 m 1
 657 1228 l 1
 606 1168 l 1
 270 1168 l 1
 227 1228 l 1
EndSplineSet
Validated: 1
EndChar

StartChar: R
Encoding: 82 82 58
Width: 1228
VWidth: 0
Flags: W
HStem: 583 60<205 559 688 1042> 1168 60<270 606 734 1070>
LayerCount: 2
Fore
SplineSet
947 75 m 1
 658 507 l 1
 664 569 l 1
 688 569 l 1
 971 147 l 1
 965 75 l 1
 947 75 l 1
1031 670 m 1
 1071 1125 l 1
 1138 1204 l 1
 1088 631 l 1
 1031 670 l 1
223 668 m 1
 160 631 l 1
 210 1204 l 1
 263 1125 l 1
 223 668 l 1
174 104 m 1
 107 24 l 1
 157 597 l 1
 213 559 l 1
 174 104 l 1
691 1228 m 1
 1121 1228 l 1
 1070 1168 l 1
 734 1168 l 1
 691 1228 l 1
227 1228 m 1
 657 1228 l 1
 606 1168 l 1
 270 1168 l 1
 227 1228 l 1
660 610 m 1
 688 643 l 1
 1049 643 l 1
 1068 614 l 1
 1042 583 l 1
 678 583 l 1
 660 610 l 1
177 610 m 1
 205 643 l 1
 566 643 l 1
 585 614 l 1
 559 583 l 1
 195 583 l 1
 177 610 l 1
EndSplineSet
Validated: 1
EndChar

StartChar: S
Encoding: 83 83 59
Width: 1228
VWidth: 0
Flags: W
HStem: 0 60<175 511 639 975> 583 60<205 559 688 1042> 1168 60<270 606 734 1070>
LayerCount: 2
Fore
SplineSet
124 0 m 1
 175 60 l 1
 511 60 l 1
 551 0 l 1
 124 0 l 1
588 0 m 1
 639 60 l 1
 975 60 l 1
 1015 0 l 1
 588 0 l 1
982 104 m 1
 1022 560 l 1
 1085 597 l 1
 1035 24 l 1
 982 104 l 1
223 668 m 1
 160 631 l 1
 210 1204 l 1
 263 1125 l 1
 223 668 l 1
691 1228 m 1
 1121 1228 l 1
 1070 1168 l 1
 734 1168 l 1
 691 1228 l 1
227 1228 m 1
 657 1228 l 1
 606 1168 l 1
 270 1168 l 1
 227 1228 l 1
660 610 m 1
 688 643 l 1
 1049 643 l 1
 1068 614 l 1
 1042 583 l 1
 678 583 l 1
 660 610 l 1
177 610 m 1
 205 643 l 1
 566 643 l 1
 585 614 l 1
 559 583 l 1
 195 583 l 1
 177 610 l 1
EndSplineSet
Validated: 1
EndChar

StartChar: T
Encoding: 84 84 60
Width: 1228
VWidth: 0
Flags: W
HStem: 1168 60<270 606 734 1070>
LayerCount: 2
Fore
SplineSet
691 1228 m 1
 1121 1228 l 1
 1070 1168 l 1
 734 1168 l 1
 691 1228 l 1
227 1228 m 1
 657 1228 l 1
 606 1168 l 1
 270 1168 l 1
 227 1228 l 1
627 662 m 1
 600 702 l 1
 640 1163 l 1
 674 1202 l 1
 701 1165 l 1
 660 699 l 1
 627 662 l 1
571 26 m 1
 544 66 l 1
 585 527 l 1
 618 567 l 1
 645 529 l 1
 604 63 l 1
 571 26 l 1
EndSplineSet
Validated: 1
EndChar

StartChar: U
Encoding: 85 85 61
Width: 1228
VWidth: 0
Flags: W
HStem: 0 60<175 511 639 975>
LayerCount: 2
Fore
SplineSet
124 0 m 1
 175 60 l 1
 511 60 l 1
 551 0 l 1
 124 0 l 1
588 0 m 1
 639 60 l 1
 975 60 l 1
 1015 0 l 1
 588 0 l 1
1031 670 m 1
 1071 1125 l 1
 1138 1204 l 1
 1088 631 l 1
 1031 670 l 1
982 104 m 1
 1022 560 l 1
 1085 597 l 1
 1035 24 l 1
 982 104 l 1
223 668 m 1
 160 631 l 1
 210 1204 l 1
 263 1125 l 1
 223 668 l 1
174 104 m 1
 107 24 l 1
 157 597 l 1
 213 559 l 1
 174 104 l 1
EndSplineSet
Validated: 1
EndChar

StartChar: V
Encoding: 86 86 62
Width: 1228
VWidth: 0
Flags: W
LayerCount: 2
Fore
SplineSet
207 75 m 1
 186 75 l 1
 193 151 l 1
 545 569 l 1
 573 569 l 1
 568 503 l 1
 207 75 l 1
699 659 m 1
 671 659 l 1
 677 726 l 1
 1038 1154 l 1
 1059 1154 l 1
 1052 1077 l 1
 699 659 l 1
223 668 m 1
 160 631 l 1
 210 1204 l 1
 263 1125 l 1
 223 668 l 1
174 104 m 1
 107 24 l 1
 157 597 l 1
 213 559 l 1
 174 104 l 1
EndSplineSet
Validated: 1
EndChar

StartChar: W
Encoding: 87 87 63
Width: 1228
VWidth: 0
Flags: W
LayerCount: 2
Fore
SplineSet
207 75 m 1
 186 75 l 1
 193 151 l 1
 545 569 l 1
 573 569 l 1
 568 503 l 1
 207 75 l 1
947 75 m 1
 658 507 l 1
 664 569 l 1
 688 569 l 1
 971 147 l 1
 965 75 l 1
 947 75 l 1
1031 670 m 1
 1071 1125 l 1
 1138 1204 l 1
 1088 631 l 1
 1031 670 l 1
982 104 m 1
 1022 560 l 1
 1085 597 l 1
 1035 24 l 1
 982 104 l 1
223 668 m 1
 160 631 l 1
 210 1204 l 1
 263 1125 l 1
 223 668 l 1
174 104 m 1
 107 24 l 1
 157 597 l 1
 213 559 l 1
 174 104 l 1
EndSplineSet
Validated: 1
EndChar

StartChar: X
Encoding: 88 88 64
Width: 1228
VWidth: 0
Flags: W
LayerCount: 2
Fore
SplineSet
207 75 m 1
 186 75 l 1
 193 151 l 1
 545 569 l 1
 573 569 l 1
 568 503 l 1
 207 75 l 1
947 75 m 1
 658 507 l 1
 664 569 l 1
 688 569 l 1
 971 147 l 1
 965 75 l 1
 947 75 l 1
699 659 m 1
 671 659 l 1
 677 726 l 1
 1038 1154 l 1
 1059 1154 l 1
 1052 1077 l 1
 699 659 l 1
556 659 m 1
 274 1081 l 1
 280 1154 l 1
 298 1154 l 1
 587 722 l 1
 581 659 l 1
 556 659 l 1
EndSplineSet
Validated: 1
EndChar

StartChar: Y
Encoding: 89 89 65
Width: 1228
VWidth: 0
Flags: W
LayerCount: 2
Fore
SplineSet
699 659 m 1
 671 659 l 1
 677 726 l 1
 1038 1154 l 1
 1059 1154 l 1
 1052 1077 l 1
 699 659 l 1
556 659 m 1
 274 1081 l 1
 280 1154 l 1
 298 1154 l 1
 587 722 l 1
 581 659 l 1
 556 659 l 1
571 26 m 1
 544 66 l 1
 585 527 l 1
 618 567 l 1
 645 529 l 1
 604 63 l 1
 571 26 l 1
EndSplineSet
Validated: 1
EndChar

StartChar: Z
Encoding: 90 90 66
Width: 1228
VWidth: 0
Flags: W
HStem: 0 60<175 511 639 975> 1168 60<270 606 734 1070>
LayerCount: 2
Fore
SplineSet
207 75 m 1
 186 75 l 1
 193 151 l 1
 545 569 l 1
 573 569 l 1
 568 503 l 1
 207 75 l 1
699 659 m 1
 671 659 l 1
 677 726 l 1
 1038 1154 l 1
 1059 1154 l 1
 1052 1077 l 1
 699 659 l 1
124 0 m 1
 175 60 l 1
 511 60 l 1
 551 0 l 1
 124 0 l 1
588 0 m 1
 639 60 l 1
 975 60 l 1
 1015 0 l 1
 588 0 l 1
691 1228 m 1
 1121 1228 l 1
 1070 1168 l 1
 734 1168 l 1
 691 1228 l 1
227 1228 m 1
 657 1228 l 1
 606 1168 l 1
 270 1168 l 1
 227 1228 l 1
EndSplineSet
Validated: 1
EndChar

StartChar: bracketleft
Encoding: 91 91 67
Width: 1228
VWidth: 0
Flags: W
HStem: -410 60<601 955> 1168 60<734 1070>
VStem: 509 612
LayerCount: 2
Fore
SplineSet
691 1228 m 1
 1121 1228 l 1
 1070 1168 l 1
 734 1168 l 1
 691 1228 l 1
627 662 m 1
 600 702 l 1
 640 1163 l 1
 674 1202 l 1
 701 1165 l 1
 660 699 l 1
 627 662 l 1
571 26 m 1
 544 66 l 1
 585 527 l 1
 618 567 l 1
 645 529 l 1
 604 63 l 1
 571 26 l 1
536 -378 m 1
 509 -339 l 1
 533 -65 l 1
 566 -26 l 1
 593 -63 l 1
 569 -341 l 1
 536 -378 l 1
573 -383 m 1
 601 -350 l 1
 962 -350 l 1
 981 -379 l 1
 955 -410 l 1
 591 -410 l 1
 573 -383 l 1
EndSplineSet
Validated: 1
EndChar

StartChar: backslash
Encoding: 92 92 68
Width: 1228
VWidth: 0
Flags: W
LayerCount: 2
Fore
SplineSet
947 75 m 1
 658 507 l 1
 664 569 l 1
 688 569 l 1
 971 147 l 1
 965 75 l 1
 947 75 l 1
556 659 m 1
 274 1081 l 1
 280 1154 l 1
 298 1154 l 1
 587 722 l 1
 581 659 l 1
 556 659 l 1
EndSplineSet
Validated: 1
EndChar

StartChar: bracketright
Encoding: 93 93 69
Width: 1228
VWidth: 0
Flags: W
HStem: -410 60<118 472> 1168 60<270 606>
VStem: 90 611
LayerCount: 2
Fore
SplineSet
227 1228 m 1
 657 1228 l 1
 606 1168 l 1
 270 1168 l 1
 227 1228 l 1
627 662 m 1
 600 702 l 1
 640 1163 l 1
 674 1202 l 1
 701 1165 l 1
 660 699 l 1
 627 662 l 1
571 26 m 1
 544 66 l 1
 585 527 l 1
 618 567 l 1
 645 529 l 1
 604 63 l 1
 571 26 l 1
536 -378 m 1
 509 -339 l 1
 533 -65 l 1
 566 -26 l 1
 593 -63 l 1
 569 -341 l 1
 536 -378 l 1
90 -383 m 1
 118 -350 l 1
 479 -350 l 1
 498 -379 l 1
 472 -410 l 1
 108 -410 l 1
 90 -383 l 1
EndSplineSet
Validated: 1
EndChar

StartChar: asciicircum
Encoding: 94 94 70
Width: 1228
VWidth: 0
Flags: W
HStem: 75 494
LayerCount: 2
Fore
SplineSet
207 75 m 1
 186 75 l 1
 193 151 l 1
 545 569 l 1
 573 569 l 1
 568 503 l 1
 207 75 l 1
947 75 m 1
 658 507 l 1
 664 569 l 1
 688 569 l 1
 971 147 l 1
 965 75 l 1
 947 75 l 1
EndSplineSet
Validated: 1
EndChar

StartChar: underscore
Encoding: 95 95 71
Width: 1228
VWidth: 0
Flags: W
HStem: 0 60<175 511 639 975>
LayerCount: 2
Fore
SplineSet
124 0 m 1
 175 60 l 1
 511 60 l 1
 551 0 l 1
 124 0 l 1
588 0 m 1
 639 60 l 1
 975 60 l 1
 1015 0 l 1
 588 0 l 1
EndSplineSet
Validated: 1
EndChar

StartChar: grave
Encoding: 96 96 72
Width: 1228
VWidth: 0
Flags: W
HStem: 659 495
VStem: 274 313
LayerCount: 2
Fore
SplineSet
556 659 m 1
 274 1081 l 1
 280 1154 l 1
 298 1154 l 1
 587 722 l 1
 581 659 l 1
 556 659 l 1
EndSplineSet
Validated: 1
EndChar

StartChar: a
Encoding: 97 97 73
Width: 1228
VWidth: 0
Flags: W
HStem: 0 60<175 511> 583 60<205 559>
VStem: 124 521
LayerCount: 2
Fore
SplineSet
207 75 m 1
 186 75 l 1
 193 151 l 1
 545 569 l 1
 573 569 l 1
 568 503 l 1
 207 75 l 1
124 0 m 1
 175 60 l 1
 511 60 l 1
 551 0 l 1
 124 0 l 1
571 26 m 1
 544 66 l 1
 585 527 l 1
 618 567 l 1
 645 529 l 1
 604 63 l 1
 571 26 l 1
177 610 m 1
 205 643 l 1
 566 643 l 1
 585 614 l 1
 559 583 l 1
 195 583 l 1
 177 610 l 1
EndSplineSet
Validated: 1
EndChar

StartChar: b
Encoding: 98 98 74
Width: 1228
VWidth: 0
Flags: W
HStem: 0 60<175 511> 583 60<205 559>
VStem: 107 538
LayerCount: 2
Fore
SplineSet
124 0 m 1
 175 60 l 1
 511 60 l 1
 551 0 l 1
 124 0 l 1
223 668 m 1
 160 631 l 1
 210 1204 l 1
 263 1125 l 1
 223 668 l 1
174 104 m 1
 107 24 l 1
 157 597 l 1
 213 559 l 1
 174 104 l 1
571 26 m 1
 544 66 l 1
 585 527 l 1
 618 567 l 1
 645 529 l 1
 604 63 l 1
 571 26 l 1
177 610 m 1
 205 643 l 1
 566 643 l 1
 585 614 l 1
 559 583 l 1
 195 583 l 1
 177 610 l 1
EndSplineSet
Validated: 1
EndChar

StartChar: c
Encoding: 99 99 75
Width: 1228
VWidth: 0
Flags: W
HStem: 0 60<175 511> 583 60<205 559>
VStem: 107 478
LayerCount: 2
Fore
SplineSet
124 0 m 1
 175 60 l 1
 511 60 l 1
 551 0 l 1
 124 0 l 1
174 104 m 1
 107 24 l 1
 157 597 l 1
 213 559 l 1
 174 104 l 1
177 610 m 1
 205 643 l 1
 566 643 l 1
 585 614 l 1
 559 583 l 1
 195 583 l 1
 177 610 l 1
EndSplineSet
Validated: 1
EndChar

StartChar: d
Encoding: 100 100 76
Width: 1228
VWidth: 0
Flags: W
HStem: 0 60<175 511> 583 60<205 559>
VStem: 107 594
LayerCount: 2
Fore
SplineSet
124 0 m 1
 175 60 l 1
 511 60 l 1
 551 0 l 1
 124 0 l 1
174 104 m 1
 107 24 l 1
 157 597 l 1
 213 559 l 1
 174 104 l 1
627 662 m 1
 600 702 l 1
 640 1163 l 1
 674 1202 l 1
 701 1165 l 1
 660 699 l 1
 627 662 l 1
571 26 m 1
 544 66 l 1
 585 527 l 1
 618 567 l 1
 645 529 l 1
 604 63 l 1
 571 26 l 1
177 610 m 1
 205 643 l 1
 566 643 l 1
 585 614 l 1
 559 583 l 1
 195 583 l 1
 177 610 l 1
EndSplineSet
Validated: 1
EndChar

StartChar: e
Encoding: 101 101 77
Width: 1228
VWidth: 0
Flags: W
HStem: 0 60<175 511> 583 60<205 559>
VStem: 107 478
LayerCount: 2
Fore
SplineSet
207 75 m 1
 186 75 l 1
 193 151 l 1
 545 569 l 1
 573 569 l 1
 568 503 l 1
 207 75 l 1
124 0 m 1
 175 60 l 1
 511 60 l 1
 551 0 l 1
 124 0 l 1
174 104 m 1
 107 24 l 1
 157 597 l 1
 213 559 l 1
 174 104 l 1
177 610 m 1
 205 643 l 1
 566 643 l 1
 585 614 l 1
 559 583 l 1
 195 583 l 1
 177 610 l 1
EndSplineSet
Validated: 1
EndChar

StartChar: f
Encoding: 102 102 78
Width: 1228
VWidth: 0
Flags: W
HStem: 583 60<205 559 688 1042> 1168 60<734 1070>
LayerCount: 2
Fore
SplineSet
691 1228 m 1
 1121 1228 l 1
 1070 1168 l 1
 734 1168 l 1
 691 1228 l 1
627 662 m 1
 600 702 l 1
 640 1163 l 1
 674 1202 l 1
 701 1165 l 1
 660 699 l 1
 627 662 l 1
571 26 m 1
 544 66 l 1
 585 527 l 1
 618 567 l 1
 645 529 l 1
 604 63 l 1
 571 26 l 1
660 610 m 1
 688 643 l 1
 1049 643 l 1
 1068 614 l 1
 1042 583 l 1
 678 583 l 1
 660 610 l 1
177 610 m 1
 205 643 l 1
 566 643 l 1
 585 614 l 1
 559 583 l 1
 195 583 l 1
 177 610 l 1
EndSplineSet
Validated: 1
EndChar

StartChar: g
Encoding: 103 103 79
Width: 1228
VWidth: 0
Flags: W
HStem: -410 60<118 472> 0 60<175 511> 583 60<205 559>
VStem: 90 555
LayerCount: 2
Fore
SplineSet
124 0 m 1
 175 60 l 1
 511 60 l 1
 551 0 l 1
 124 0 l 1
174 104 m 1
 107 24 l 1
 157 597 l 1
 213 559 l 1
 174 104 l 1
571 26 m 1
 544 66 l 1
 585 527 l 1
 618 567 l 1
 645 529 l 1
 604 63 l 1
 571 26 l 1
177 610 m 1
 205 643 l 1
 566 643 l 1
 585 614 l 1
 559 583 l 1
 195 583 l 1
 177 610 l 1
536 -378 m 1
 509 -339 l 1
 533 -65 l 1
 566 -26 l 1
 593 -63 l 1
 569 -341 l 1
 536 -378 l 1
90 -383 m 1
 118 -350 l 1
 479 -350 l 1
 498 -379 l 1
 472 -410 l 1
 108 -410 l 1
 90 -383 l 1
EndSplineSet
Validated: 1
EndChar

StartChar: h
Encoding: 104 104 80
Width: 1228
VWidth: 0
Flags: W
HStem: 583 60<205 559>
VStem: 107 538
LayerCount: 2
Fore
SplineSet
223 668 m 1
 160 631 l 1
 210 1204 l 1
 263 1125 l 1
 223 668 l 1
174 104 m 1
 107 24 l 1
 157 597 l 1
 213 559 l 1
 174 104 l 1
571 26 m 1
 544 66 l 1
 585 527 l 1
 618 567 l 1
 645 529 l 1
 604 63 l 1
 571 26 l 1
177 610 m 1
 205 643 l 1
 566 643 l 1
 585 614 l 1
 559 583 l 1
 195 583 l 1
 177 610 l 1
EndSplineSet
Validated: 1
EndChar

StartChar: i
Encoding: 105 105 81
Width: 1228
VWidth: 0
Flags: W
HStem: 26 21G<557.5 588.838> 1068 81<535.013 615.986>
VStem: 535 81<1068.01 1148.99>
LayerCount: 2
Fore
SplineSet
571 26 m 1
 544 66 l 1
 585 527 l 1
 618 567 l 1
 645 529 l 1
 604 63 l 1
 571 26 l 1
535 1109 m 0
 535 1131 553 1149 575 1149 c 0
 597 1149 616 1131 616 1109 c 0
 616 1087 597 1068 575 1068 c 0
 553 1068 535 1087 535 1109 c 0
EndSplineSet
Validated: 1
EndChar

StartChar: j
Encoding: 106 106 82
Width: 1228
VWidth: 0
Flags: W
HStem: -410 60<118 472> 1068 81<535.013 615.986>
VStem: 535 81<1068.01 1148.99>
LayerCount: 2
Fore
SplineSet
571 26 m 1
 544 66 l 1
 585 527 l 1
 618 567 l 1
 645 529 l 1
 604 63 l 1
 571 26 l 1
535 1109 m 0
 535 1131 553 1149 575 1149 c 0
 597 1149 616 1131 616 1109 c 0
 616 1087 597 1068 575 1068 c 0
 553 1068 535 1087 535 1109 c 0
536 -378 m 1
 509 -339 l 1
 533 -65 l 1
 566 -26 l 1
 593 -63 l 1
 569 -341 l 1
 536 -378 l 1
90 -383 m 1
 118 -350 l 1
 479 -350 l 1
 498 -379 l 1
 472 -410 l 1
 108 -410 l 1
 90 -383 l 1
EndSplineSet
Validated: 1
EndChar

StartChar: k
Encoding: 107 107 83
Width: 1228
VWidth: 0
Flags: W
HStem: 583 60<205 559>
VStem: 107 478
LayerCount: 2
Fore
SplineSet
223 668 m 1
 160 631 l 1
 210 1204 l 1
 263 1125 l 1
 223 668 l 1
174 104 m 1
 107 24 l 1
 157 597 l 1
 213 559 l 1
 174 104 l 1
177 610 m 1
 205 643 l 1
 566 643 l 1
 585 614 l 1
 559 583 l 1
 195 583 l 1
 177 610 l 1
229 570 m 1
 254 570 l 1
 375 389 l 1
 334 342 l 1
 224 507 l 1
 229 570 l 1
426 313 m 1
 536 147 l 1
 530 75 l 1
 512 75 l 1
 386 265 l 1
 426 313 l 1
EndSplineSet
Validated: 1
EndChar

StartChar: l
Encoding: 108 108 84
Width: 1228
VWidth: 0
Flags: W
HStem: 1182 20G<656.564 688.595>
VStem: 544 157
LayerCount: 2
Fore
SplineSet
627 662 m 1
 600 702 l 1
 640 1163 l 1
 674 1202 l 1
 701 1165 l 1
 660 699 l 1
 627 662 l 1
571 26 m 1
 544 66 l 1
 585 527 l 1
 618 567 l 1
 645 529 l 1
 604 63 l 1
 571 26 l 1
EndSplineSet
Validated: 1
EndChar

StartChar: m
Encoding: 109 109 85
Width: 1228
VWidth: 0
Flags: W
HStem: 583 60<205 559 688 1042>
LayerCount: 2
Fore
SplineSet
982 104 m 1
 1022 560 l 1
 1085 597 l 1
 1035 24 l 1
 982 104 l 1
174 104 m 1
 107 24 l 1
 157 597 l 1
 213 559 l 1
 174 104 l 1
571 26 m 1
 544 66 l 1
 585 527 l 1
 618 567 l 1
 645 529 l 1
 604 63 l 1
 571 26 l 1
660 610 m 1
 688 643 l 1
 1049 643 l 1
 1068 614 l 1
 1042 583 l 1
 678 583 l 1
 660 610 l 1
177 610 m 1
 205 643 l 1
 566 643 l 1
 585 614 l 1
 559 583 l 1
 195 583 l 1
 177 610 l 1
EndSplineSet
Validated: 1
EndChar

StartChar: n
Encoding: 110 110 86
Width: 1228
VWidth: 0
Flags: W
HStem: 24 573
VStem: 107 538
LayerCount: 2
Fore
SplineSet
174 104 m 1
 107 24 l 1
 157 597 l 1
 213 559 l 1
 174 104 l 1
571 26 m 1
 544 66 l 1
 585 527 l 1
 618 567 l 1
 645 529 l 1
 604 63 l 1
 571 26 l 1
229 570 m 1
 254 570 l 1
 375 389 l 1
 334 342 l 1
 224 507 l 1
 229 570 l 1
426 313 m 1
 536 147 l 1
 530 75 l 1
 512 75 l 1
 386 265 l 1
 426 313 l 1
EndSplineSet
Validated: 1
EndChar

StartChar: o
Encoding: 111 111 87
Width: 1228
VWidth: 0
Flags: W
HStem: 0 60<175 511> 583 60<205 559>
VStem: 107 538
LayerCount: 2
Fore
SplineSet
124 0 m 1
 175 60 l 1
 511 60 l 1
 551 0 l 1
 124 0 l 1
174 104 m 1
 107 24 l 1
 157 597 l 1
 213 559 l 1
 174 104 l 1
571 26 m 1
 544 66 l 1
 585 527 l 1
 618 567 l 1
 645 529 l 1
 604 63 l 1
 571 26 l 1
177 610 m 1
 205 643 l 1
 566 643 l 1
 585 614 l 1
 559 583 l 1
 195 583 l 1
 177 610 l 1
EndSplineSet
Validated: 1
EndChar

StartChar: p
Encoding: 112 112 88
Width: 1228
VWidth: 0
Flags: W
HStem: -378 21G<522.154 553.838> 0 60<639 975> 583 60<688 1042>
VStem: 509 576
LayerCount: 2
Fore
SplineSet
588 0 m 1
 639 60 l 1
 975 60 l 1
 1015 0 l 1
 588 0 l 1
982 104 m 1
 1022 560 l 1
 1085 597 l 1
 1035 24 l 1
 982 104 l 1
571 26 m 1
 544 66 l 1
 585 527 l 1
 618 567 l 1
 645 529 l 1
 604 63 l 1
 571 26 l 1
660 610 m 1
 688 643 l 1
 1049 643 l 1
 1068 614 l 1
 1042 583 l 1
 678 583 l 1
 660 610 l 1
536 -378 m 1
 509 -339 l 1
 533 -65 l 1
 566 -26 l 1
 593 -63 l 1
 569 -341 l 1
 536 -378 l 1
EndSplineSet
Validated: 1
EndChar

StartChar: q
Encoding: 113 113 89
Width: 1228
VWidth: 0
Flags: W
HStem: -410 60<601 955> -378 21G<522.154 553.838> 0 60<175 511> 583 60<205 559>
LayerCount: 2
Fore
SplineSet
124 0 m 1x30
 175 60 l 1
 511 60 l 1
 551 0 l 1
 124 0 l 1x30
174 104 m 1
 107 24 l 1
 157 597 l 1
 213 559 l 1
 174 104 l 1
571 26 m 1
 544 66 l 1
 585 527 l 1
 618 567 l 1
 645 529 l 1
 604 63 l 1
 571 26 l 1
177 610 m 1
 205 643 l 1
 566 643 l 1
 585 614 l 1
 559 583 l 1
 195 583 l 1
 177 610 l 1
536 -378 m 1x70
 509 -339 l 1
 533 -65 l 1
 566 -26 l 1
 593 -63 l 1
 569 -341 l 1
 536 -378 l 1x70
573 -383 m 1
 601 -350 l 1
 962 -350 l 1
 981 -379 l 1
 955 -410 l 1
 591 -410 l 1xb0
 573 -383 l 1
EndSplineSet
Validated: 1
EndChar

StartChar: r
Encoding: 114 114 90
Width: 1228
VWidth: 0
Flags: W
HStem: 583 60<205 559>
VStem: 107 478
LayerCount: 2
Fore
SplineSet
174 104 m 1
 107 24 l 1
 157 597 l 1
 213 559 l 1
 174 104 l 1
177 610 m 1
 205 643 l 1
 566 643 l 1
 585 614 l 1
 559 583 l 1
 195 583 l 1
 177 610 l 1
EndSplineSet
Validated: 1
EndChar

StartChar: s
Encoding: 115 115 91
Width: 1228
VWidth: 0
Flags: W
HStem: 0 60<175 511> 583 60<205 559>
VStem: 124 461
LayerCount: 2
Fore
SplineSet
124 0 m 1
 175 60 l 1
 511 60 l 1
 551 0 l 1
 124 0 l 1
177 610 m 1
 205 643 l 1
 566 643 l 1
 585 614 l 1
 559 583 l 1
 195 583 l 1
 177 610 l 1
229 570 m 1
 254 570 l 1
 375 389 l 1
 334 342 l 1
 224 507 l 1
 229 570 l 1
426 313 m 1
 536 147 l 1
 530 75 l 1
 512 75 l 1
 386 265 l 1
 426 313 l 1
EndSplineSet
Validated: 1
EndChar

StartChar: t
Encoding: 116 116 92
Width: 1228
VWidth: 0
Flags: W
HStem: 0 60<639 975> 583 60<205 559 688 1042> 662 21G<613.5 644.838> 1182 20G<656.564 688.595> 1182 20G<656.564 688.595>
LayerCount: 2
Fore
SplineSet
588 0 m 1xe0
 639 60 l 1
 975 60 l 1
 1015 0 l 1
 588 0 l 1xe0
627 662 m 1
 600 702 l 1
 640 1163 l 1
 674 1202 l 1xf0
 701 1165 l 1
 660 699 l 1
 627 662 l 1
571 26 m 1
 544 66 l 1
 585 527 l 1
 618 567 l 1
 645 529 l 1
 604 63 l 1
 571 26 l 1
660 610 m 1
 688 643 l 1
 1049 643 l 1
 1068 614 l 1
 1042 583 l 1
 678 583 l 1
 660 610 l 1
177 610 m 1
 205 643 l 1
 566 643 l 1
 585 614 l 1
 559 583 l 1
 195 583 l 1
 177 610 l 1
EndSplineSet
Validated: 1
EndChar

StartChar: u
Encoding: 117 117 93
Width: 1228
VWidth: 0
Flags: W
HStem: 0 60<175 511> 577 20G<155.255 186.474>
VStem: 107 538
LayerCount: 2
Fore
SplineSet
124 0 m 1
 175 60 l 1
 511 60 l 1
 551 0 l 1
 124 0 l 1
174 104 m 1
 107 24 l 1
 157 597 l 1
 213 559 l 1
 174 104 l 1
571 26 m 1
 544 66 l 1
 585 527 l 1
 618 567 l 1
 645 529 l 1
 604 63 l 1
 571 26 l 1
EndSplineSet
Validated: 1
EndChar

StartChar: v
Encoding: 118 118 94
Width: 1228
VWidth: 0
Flags: W
HStem: 24 573
VStem: 107 466
LayerCount: 2
Fore
SplineSet
207 75 m 1
 186 75 l 1
 193 151 l 1
 545 569 l 1
 573 569 l 1
 568 503 l 1
 207 75 l 1
174 104 m 1
 107 24 l 1
 157 597 l 1
 213 559 l 1
 174 104 l 1
EndSplineSet
Validated: 1
EndChar

StartChar: w
Encoding: 119 119 95
Width: 1228
VWidth: 0
Flags: W
HStem: 0 60<175 511 639 975> 577 20G<155.255 186.474 1050.95 1083.25>
LayerCount: 2
Fore
SplineSet
124 0 m 1
 175 60 l 1
 511 60 l 1
 551 0 l 1
 124 0 l 1
588 0 m 1
 639 60 l 1
 975 60 l 1
 1015 0 l 1
 588 0 l 1
982 104 m 1
 1022 560 l 1
 1085 597 l 1
 1035 24 l 1
 982 104 l 1
174 104 m 1
 107 24 l 1
 157 597 l 1
 213 559 l 1
 174 104 l 1
571 26 m 1
 544 66 l 1
 585 527 l 1
 618 567 l 1
 645 529 l 1
 604 63 l 1
 571 26 l 1
EndSplineSet
Validated: 1
EndChar

StartChar: currency
Encoding: 164 164 96
Width: 1228
VWidth: 0
Flags: W
HStem: -410 60<118 472 601 955> -378 21G<522.154 553.838> -108 81<439.014 519.987> 0 60<175 511 639 975> 549 20G<155.255 186.474 227.413 267.37 528.158 573 662.065 701.412 1050.95 1083.25> 583 60<205 559 688 1042> 631 21G<161.745 194.054 1058.77 1089.75> 1068 81<535.013 615.986> 1168 60<270 606 734 1070> 1182 20G<656.564 688.595>
VStem: 439 81<-107.987 -27.0139> 535 81<1068.01 1148.99>
LayerCount: 2
Fore
SplineSet
207 75 m 1x3930
 186 75 l 1
 193 151 l 1
 545 569 l 1
 573 569 l 1
 568 503 l 1
 207 75 l 1x3930
947 75 m 1
 658 507 l 1
 664 569 l 1
 688 569 l 1
 971 147 l 1
 965 75 l 1
 947 75 l 1
699 659 m 1
 671 659 l 1
 677 726 l 1
 1038 1154 l 1
 1059 1154 l 1
 1052 1077 l 1
 699 659 l 1
556 659 m 1
 274 1081 l 1
 280 1154 l 1
 298 1154 l 1
 587 722 l 1
 581 659 l 1
 556 659 l 1
124 0 m 1
 175 60 l 1
 511 60 l 1
 551 0 l 1
 124 0 l 1
588 0 m 1
 639 60 l 1
 975 60 l 1
 1015 0 l 1
 588 0 l 1
1031 670 m 1
 1071 1125 l 1
 1138 1204 l 1
 1088 631 l 1x3b30
 1031 670 l 1
982 104 m 1
 1022 560 l 1
 1085 597 l 1
 1035 24 l 1
 982 104 l 1
223 668 m 1
 160 631 l 1
 210 1204 l 1
 263 1125 l 1
 223 668 l 1
174 104 m 1
 107 24 l 1
 157 597 l 1
 213 559 l 1
 174 104 l 1
691 1228 m 1x39b0
 1121 1228 l 1
 1070 1168 l 1
 734 1168 l 1
 691 1228 l 1x39b0
227 1228 m 1
 657 1228 l 1
 606 1168 l 1
 270 1168 l 1
 227 1228 l 1
627 662 m 1
 600 702 l 1
 640 1163 l 1
 674 1202 l 1x3970
 701 1165 l 1
 660 699 l 1
 627 662 l 1
571 26 m 1
 544 66 l 1
 585 527 l 1
 618 567 l 1
 645 529 l 1
 604 63 l 1
 571 26 l 1
660 610 m 1
 688 643 l 1
 1049 643 l 1
 1068 614 l 1
 1042 583 l 1
 678 583 l 1x3d30
 660 610 l 1
177 610 m 1
 205 643 l 1
 566 643 l 1
 585 614 l 1
 559 583 l 1
 195 583 l 1
 177 610 l 1
535 1109 m 0
 535 1131 553 1149 575 1149 c 0
 597 1149 616 1131 616 1109 c 0
 616 1087 597 1068 575 1068 c 0
 553 1068 535 1087 535 1109 c 0
439 -68 m 0
 439 -46 458 -27 480 -27 c 0
 502 -27 520 -46 520 -68 c 0
 520 -90 502 -108 480 -108 c 0
 458 -108 439 -90 439 -68 c 0
536 -378 m 1x7930
 509 -339 l 1
 533 -65 l 1
 566 -26 l 1
 593 -63 l 1
 569 -341 l 1
 536 -378 l 1x7930
229 570 m 1
 254 570 l 1
 375 389 l 1
 334 342 l 1
 224 507 l 1
 229 570 l 1
426 313 m 1
 536 147 l 1
 530 75 l 1
 512 75 l 1
 386 265 l 1
 426 313 l 1
573 -383 m 1
 601 -350 l 1
 962 -350 l 1
 981 -379 l 1
 955 -410 l 1
 591 -410 l 1xb930
 573 -383 l 1
90 -383 m 1
 118 -350 l 1
 479 -350 l 1
 498 -379 l 1
 472 -410 l 1
 108 -410 l 1
 90 -383 l 1
EndSplineSet
Validated: 1
EndChar
